<svg width="1394" height="451" viewBox="0 0 1394 451" fill="none" xmlns="http://www.w3.org/2000/svg">
<path d="M442.309 146.928H380.795V391.756H442.309V146.928Z" fill="black"/>
<path d="M432.26 129.372H390.844V232.267H432.26V129.372Z" fill="black"/>
<path d="M423.033 118.242H400.056V175.308H423.033V118.242Z" fill="black"/>
<path d="M419.379 147.567H403.711V108.681H409.36H414.963H419.379V147.567Z" fill="black"/>
<path d="M410.517 130.636H408.812V91.7346H409.421H410.03H410.517V130.636Z" fill="black"/>
<path d="M414.278 117.192H412.572V78.2903H413.181H413.79H414.278V117.192Z" fill="black"/>
<path d="M443.939 146.303H379.151V148.907H443.939V146.303Z" fill="black"/>
<path d="M433.752 128.124H389.322V130.636H433.752V128.124Z" fill="black"/>
<path d="M423.992 117.192H398.381V119.11H423.992V117.192Z" fill="black"/>
<path opacity="0.29" d="M396.569 133.544H394.651V144.324H396.569V133.544Z" fill="black"/>
<path opacity="0.29" d="M401.899 133.544H399.98V144.324H401.899V133.544Z" fill="black"/>
<path opacity="0.29" d="M407.213 133.544H405.294V144.324H407.213V133.544Z" fill="black"/>
<path opacity="0.29" d="M412.542 133.544H410.623V144.324H412.542V133.544Z" fill="black"/>
<path opacity="0.29" d="M417.871 133.544H415.953V144.324H417.871V133.544Z" fill="black"/>
<path opacity="0.29" d="M423.2 133.544H421.282V144.324H423.2V133.544Z" fill="black"/>
<path opacity="0.29" d="M428.53 133.544H426.611V144.324H428.53V133.544Z" fill="black"/>
<path d="M390.844 156.687H386.185V169.477H390.844V156.687Z" fill="black"/>
<path opacity="0.29" d="M400.056 156.687H395.397V169.477H400.056V156.687Z" fill="black"/>
<path d="M409.268 156.687H404.609V169.477H409.268V156.687Z" fill="black"/>
<path d="M418.48 156.687H413.821V169.477H418.48V156.687Z" fill="black"/>
<path d="M427.677 156.687H423.033V169.477H427.677V156.687Z" fill="black"/>
<path d="M436.889 156.687H432.245V169.477H436.889V156.687Z" fill="black"/>
<path d="M390.844 176.633H386.185V189.422H390.844V176.633Z" fill="black"/>
<path d="M400.056 176.633H395.397V189.422H400.056V176.633Z" fill="black"/>
<path d="M409.268 176.633H404.609V189.422H409.268V176.633Z" fill="black"/>
<path opacity="0.29" d="M418.48 176.633H413.821V189.422H418.48V176.633Z" fill="black"/>
<path d="M427.677 176.633H423.033V189.422H427.677V176.633Z" fill="black"/>
<path d="M436.889 176.633H432.245V189.422H436.889V176.633Z" fill="black"/>
<path d="M390.844 196.563H386.185V209.353H390.844V196.563Z" fill="black"/>
<path d="M400.056 196.563H395.397V209.353H400.056V196.563Z" fill="black"/>
<path d="M409.268 196.563H404.609V209.353H409.268V196.563Z" fill="black"/>
<path d="M418.48 196.563H413.821V209.353H418.48V196.563Z" fill="black"/>
<path opacity="0.29" d="M427.677 196.563H423.033V209.353H427.677V196.563Z" fill="black"/>
<path opacity="0.29" d="M436.889 196.563H432.245V209.353H436.889V196.563Z" fill="black"/>
<path opacity="0.29" d="M390.844 216.494H386.185V229.283H390.844V216.494Z" fill="black"/>
<path d="M400.056 216.494H395.397V229.283H400.056V216.494Z" fill="black"/>
<path d="M409.268 216.494H404.609V229.283H409.268V216.494Z" fill="black"/>
<path d="M418.48 216.494H413.821V229.283H418.48V216.494Z" fill="black"/>
<path d="M427.677 216.494H423.033V229.283H427.677V216.494Z" fill="black"/>
<path d="M436.889 216.494H432.245V229.283H436.889V216.494Z" fill="black"/>
<path d="M390.844 236.439H386.185V249.229H390.844V236.439Z" fill="black"/>
<path opacity="0.29" d="M400.056 236.439H395.397V249.229H400.056V236.439Z" fill="black"/>
<path d="M409.268 236.439H404.609V249.229H409.268V236.439Z" fill="black"/>
<path opacity="0.29" d="M418.48 236.439H413.821V249.229H418.48V236.439Z" fill="black"/>
<path d="M427.677 236.439H423.033V249.229H427.677V236.439Z" fill="black"/>
<path d="M436.889 236.439H432.245V249.229H436.889V236.439Z" fill="black"/>
<path d="M390.844 256.37H386.185V269.159H390.844V256.37Z" fill="black"/>
<path d="M400.056 256.37H395.397V269.159H400.056V256.37Z" fill="black"/>
<path d="M409.268 256.37H404.609V269.159H409.268V256.37Z" fill="black"/>
<path d="M418.48 256.37H413.821V269.159H418.48V256.37Z" fill="black"/>
<path d="M427.677 256.37H423.033V269.159H427.677V256.37Z" fill="black"/>
<path opacity="0.29" d="M436.889 256.37H432.245V269.159H436.889V256.37Z" fill="black"/>
<path d="M390.844 276.315H386.185V289.105H390.844V276.315Z" fill="black"/>
<path opacity="0.29" d="M400.056 276.315H395.397V289.105H400.056V276.315Z" fill="black"/>
<path opacity="0.29" d="M409.268 276.315H404.609V289.105H409.268V276.315Z" fill="black"/>
<path d="M418.48 276.315H413.821V289.105H418.48V276.315Z" fill="black"/>
<path d="M427.677 276.315H423.033V289.105H427.677V276.315Z" fill="black"/>
<path d="M436.889 276.315H432.245V289.105H436.889V276.315Z" fill="black"/>
<path d="M390.844 296.246H386.185V309.035H390.844V296.246Z" fill="black"/>
<path d="M400.056 296.246H395.397V309.035H400.056V296.246Z" fill="black"/>
<path d="M409.268 296.246H404.609V309.035H409.268V296.246Z" fill="black"/>
<path d="M418.48 296.246H413.821V309.035H418.48V296.246Z" fill="black"/>
<path opacity="0.29" d="M427.677 296.246H423.033V309.035H427.677V296.246Z" fill="black"/>
<path d="M436.889 296.246H432.245V309.035H436.889V296.246Z" fill="black"/>
<path d="M390.844 316.191H386.185V328.981H390.844V316.191Z" fill="black"/>
<path opacity="0.29" d="M400.056 316.191H395.397V328.981H400.056V316.191Z" fill="black"/>
<path d="M409.268 316.191H404.609V328.981H409.268V316.191Z" fill="black"/>
<path d="M418.48 316.191H413.821V328.981H418.48V316.191Z" fill="black"/>
<path d="M427.677 316.191H423.033V328.981H427.677V316.191Z" fill="black"/>
<path d="M436.889 316.191H432.245V328.981H436.889V316.191Z" fill="black"/>
<path d="M390.844 336.122H386.185V348.911H390.844V336.122Z" fill="black"/>
<path d="M400.056 336.122H395.397V348.911H400.056V336.122Z" fill="black"/>
<path d="M409.268 336.122H404.609V348.911H409.268V336.122Z" fill="black"/>
<path opacity="0.29" d="M418.48 336.122H413.821V348.911H418.48V336.122Z" fill="black"/>
<path d="M427.677 336.122H423.033V348.911H427.677V336.122Z" fill="black"/>
<path opacity="0.29" d="M436.889 336.122H432.245V348.911H436.889V336.122Z" fill="black"/>
<path opacity="0.29" d="M390.844 356.067H386.185V368.857H390.844V356.067Z" fill="black"/>
<path d="M400.056 356.067H395.397V368.857H400.056V356.067Z" fill="black"/>
<path opacity="0.29" d="M409.268 356.067H404.609V368.857H409.268V356.067Z" fill="black"/>
<path d="M418.48 356.067H413.821V368.857H418.48V356.067Z" fill="black"/>
<path d="M427.677 356.067H423.033V368.857H427.677V356.067Z" fill="black"/>
<path d="M436.889 356.067H432.245V368.857H436.889V356.067Z" fill="black"/>
<path d="M301.024 156.246H202.145V362.492H301.024V156.246Z" fill="black"/>
<path d="M303.826 152.698H199.328V158.53H303.826V152.698Z" fill="black"/>
<path d="M297.705 145.237H205.464V172.948H297.705V145.237Z" fill="black"/>
<path d="M249.057 133.894H212.529V164.163H249.057V133.894Z" fill="black"/>
<path d="M233.663 142.421H212.529V126.495H227.679L233.663 142.421Z" fill="black"/>
<path d="M223.096 113.264H221.041V148.755H223.096V113.264Z" fill="black"/>
<path d="M223.903 111.452C223.903 111.816 223.795 112.172 223.593 112.475C223.39 112.778 223.102 113.014 222.766 113.154C222.429 113.293 222.059 113.33 221.701 113.259C221.344 113.188 221.016 113.012 220.758 112.755C220.5 112.497 220.325 112.169 220.254 111.811C220.183 111.454 220.219 111.083 220.358 110.747C220.498 110.41 220.734 110.122 221.037 109.92C221.34 109.718 221.696 109.609 222.061 109.609C222.549 109.609 223.018 109.804 223.363 110.149C223.709 110.495 223.903 110.963 223.903 111.452Z" fill="black"/>
<path d="M1119.88 378.19H1011.64L998.131 74.9407L1119.88 100.215V378.19Z" fill="black"/>
<path d="M647.636 205.013V103.626H630.659V76.4785H624.599V36.6481H591.177V7.36922H588.208V36.6481H581.661V0H578.692V36.6481H557.573V103.626H546.655V205.013H537.306V389.67H654.214V205.013H647.636Z" fill="black"/>
<path d="M1357.21 374.429H63.9353V405.185H1357.21V374.429Z" fill="black"/>
<path d="M825.206 397.648H767.939L790.246 282.984H825.206V397.648Z" fill="#949494"/>
<path d="M1375.42 402.125H17.5408V450.618H1375.42V402.125Z" fill="#949494"/>
<path d="M778.278 185.448V134.64H759.885V115.289H750.048V99.0429H746.592V71.1799H745.709V99.0429H742.253V115.289H732.416V134.64H714.16V185.448H710.369V277.716H682.078V382.879H710.369H738.659H781.932V185.448H778.278Z" fill="#949494"/>
<path d="M883.949 243.824H794.951V245.438H798.971V395.943H879.929V245.438H883.949V243.824Z" fill="#949494"/>
<path d="M478.107 281.309H399.188V406.677H478.107V281.309Z" fill="#949494"/>
<path d="M387.297 345.546H251.584V406.677H387.297V345.546Z" fill="#949494"/>
<path d="M354.118 208.957H324.321V359.082H354.118V208.957Z" fill="#949494"/>
<path d="M332.452 168.913H330.898V250.553H332.452V168.913Z" fill="#949494"/>
<path d="M337.491 175.095H335.938V256.735H337.491V175.095Z" fill="#949494"/>
<path d="M344.831 199.669H326.62V219.782H344.831V199.669Z" fill="#949494"/>
<path d="M433.828 303.752H381.983V406.677H433.828V303.752Z" fill="#949494"/>
<path d="M588.208 194.843H490.881V406.677H588.208V194.843Z" fill="#949494"/>
<path d="M578.646 187.55H500.443V222.827H578.646V187.55Z" fill="#949494"/>
<path d="M595.76 199.273H483.344V201.755H595.76V199.273Z" fill="#949494"/>
<path d="M519.111 299.687H473.249V406.662H519.111V299.687Z" fill="#949494"/>
<path d="M197.409 295.621H144.787V406.662H197.409V295.621Z" fill="#949494"/>
<path d="M266.674 265.444H161.81V406.662H266.674V265.444Z" fill="#949494"/>
<path d="M269.369 260.024H155.689V265.444H269.369V260.024Z" fill="#949494"/>
<path d="M212.529 245.331H166.454V273.97H212.529V245.331Z" fill="#949494"/>
<path d="M235.323 245.331H227.588V262.749H235.323V245.331Z" fill="#949494"/>
<path d="M251.585 245.331H243.073V262.749H251.585V245.331Z" fill="#949494"/>
<path d="M171.098 363.726H116.146V406.677H171.098V363.726Z" fill="#949494"/>
<path d="M121.43 345.546H95.4081V406.677H121.43V345.546Z" fill="#949494"/>
<path d="M108.396 385.194H63.9353V406.662H108.396V385.194Z" fill="#949494"/>
<path d="M1126.56 359.082H578.646V406.677H1126.56V359.082Z" fill="#949494"/>
<path d="M1082.82 227.334C1081.16 227.333 1079.56 227.961 1078.34 229.091C1077.12 230.22 1076.38 231.768 1076.26 233.424L1068.55 233.181C1068.55 232.42 1068.55 231.658 1068.55 230.912C1068.57 221.464 1066.93 212.086 1063.71 203.202L1070.17 200.826C1070.82 202.315 1072 203.51 1073.48 204.18C1074.96 204.849 1076.63 204.946 1078.18 204.451C1079.73 203.956 1081.04 202.905 1081.85 201.5C1082.67 200.096 1082.94 198.439 1082.6 196.849C1082.27 195.259 1081.36 193.85 1080.04 192.894C1078.73 191.938 1077.11 191.504 1075.49 191.675C1073.87 191.846 1072.38 192.61 1071.3 193.82C1070.21 195.029 1069.61 196.598 1069.62 198.223C1069.62 198.873 1069.72 199.519 1069.91 200.141L1063.47 202.516C1059.75 192.576 1054.11 183.465 1046.87 175.704L1051.91 170.984C1053.15 172.157 1054.79 172.801 1056.5 172.78C1058.2 172.758 1059.83 172.073 1061.04 170.869C1062.25 169.666 1062.94 168.039 1062.96 166.334C1062.99 164.63 1062.35 162.982 1061.18 161.742C1060.01 160.502 1058.4 159.766 1056.7 159.692C1055 159.618 1053.33 160.212 1052.06 161.346C1050.79 162.48 1050.01 164.066 1049.88 165.766C1049.76 167.467 1050.31 169.147 1051.41 170.451L1046.37 175.171C1045.85 174.623 1045.32 174.075 1044.85 173.542C1037.35 166.021 1028.45 160.046 1018.66 155.956L1021.43 149.211C1023.06 149.727 1024.83 149.584 1026.36 148.815C1027.89 148.045 1029.06 146.709 1029.62 145.091C1030.18 143.472 1030.09 141.699 1029.36 140.148C1028.64 138.597 1027.33 137.391 1025.73 136.785C1024.13 136.18 1022.35 136.224 1020.78 136.907C1019.21 137.59 1017.97 138.859 1017.32 140.444C1016.67 142.028 1016.66 143.804 1017.3 145.393C1017.94 146.982 1019.18 148.259 1020.74 148.953L1017.94 155.606C1009.19 152.063 999.879 150.085 990.441 149.76L990.746 140.533H990.959C992.65 140.411 994.228 139.637 995.36 138.375C996.493 137.113 997.091 135.461 997.03 133.767C996.969 132.072 996.253 130.468 995.033 129.291C993.812 128.114 992.183 127.456 990.487 127.456C988.792 127.456 987.162 128.114 985.942 129.291C984.721 130.468 984.005 132.072 983.944 133.767C983.883 135.461 984.482 137.113 985.614 138.375C986.746 139.637 988.324 140.411 990.015 140.533L989.711 149.79H987.442C978.378 149.775 969.376 151.283 960.811 154.251L958.147 146.714C959.663 146.096 960.896 144.936 961.604 143.459C962.312 141.982 962.445 140.295 961.977 138.725C961.509 137.156 960.474 135.816 959.072 134.968C957.671 134.121 956.004 133.825 954.396 134.138C952.789 134.452 951.356 135.353 950.376 136.665C949.396 137.978 948.94 139.608 949.096 141.238C949.253 142.869 950.01 144.383 951.222 145.485C952.433 146.587 954.011 147.199 955.649 147.202C956.262 147.206 956.872 147.124 957.461 146.958L960.111 154.571C949.757 158.269 940.269 164.046 932.231 171.547L927.42 166.264C928.594 164.994 929.225 163.316 929.181 161.587C929.136 159.858 928.418 158.215 927.18 157.008C925.943 155.8 924.282 155.123 922.553 155.12C920.824 155.118 919.162 155.791 917.92 156.995C916.679 158.2 915.957 159.841 915.908 161.57C915.859 163.298 916.486 164.978 917.656 166.251C918.827 167.524 920.448 168.291 922.175 168.387C923.901 168.483 925.597 167.902 926.902 166.767L931.698 171.898L930.069 173.42C923.39 180.097 917.919 187.881 913.899 196.426L907.808 193.609C908.041 192.933 908.16 192.223 908.159 191.508C908.152 189.892 907.55 188.335 906.467 187.136C905.383 185.936 903.895 185.178 902.288 185.008C900.681 184.838 899.067 185.266 897.756 186.212C896.446 187.157 895.53 188.553 895.185 190.132C894.84 191.711 895.089 193.362 895.886 194.768C896.683 196.175 897.97 197.237 899.502 197.753C901.034 198.269 902.702 198.201 904.187 197.563C905.672 196.924 906.869 195.761 907.549 194.295L913.64 197.096C909.234 206.753 906.776 217.183 906.407 227.791L898.566 227.532C898.471 225.834 897.717 224.24 896.465 223.089C895.213 221.938 893.561 221.321 891.861 221.368C890.161 221.416 888.547 222.125 887.361 223.344C886.175 224.563 885.512 226.197 885.512 227.898C885.512 229.598 886.175 231.232 887.361 232.451C888.547 233.67 890.161 234.379 891.861 234.427C893.561 234.474 895.213 233.857 896.465 232.706C897.717 231.555 898.471 229.961 898.566 228.263L906.407 228.522C906.407 229.268 906.407 230.044 906.407 230.79C906.396 240.232 908.03 249.604 911.234 258.486L904.793 260.861C904.144 259.373 902.965 258.178 901.486 257.508C900.006 256.839 898.331 256.741 896.784 257.235C895.236 257.729 893.927 258.779 893.109 260.182C892.292 261.585 892.023 263.241 892.356 264.831C892.688 266.421 893.599 267.83 894.911 268.788C896.223 269.745 897.843 270.182 899.458 270.014C901.074 269.846 902.569 269.085 903.656 267.878C904.743 266.671 905.343 265.104 905.342 263.48C905.34 262.825 905.242 262.173 905.052 261.546L911.493 259.171C915.206 269.118 920.846 278.235 928.09 285.999L923.05 290.719C921.791 289.481 920.098 288.783 918.332 288.775C916.566 288.767 914.867 289.448 913.596 290.674C912.325 291.899 911.583 293.573 911.528 295.338C911.472 297.102 912.108 298.819 913.299 300.122C914.491 301.425 916.144 302.212 917.907 302.314C919.669 302.417 921.403 301.827 922.737 300.671C924.072 299.515 924.902 297.883 925.051 296.124C925.201 294.364 924.657 292.616 923.537 291.252L928.531 286.547L930.054 288.176C935.124 293.244 940.837 297.626 947.046 301.209L907.367 374.429H900.241V376.515H896.739V380.672H1078.15V376.515H1074.7V374.429H1067.58L1027.88 301.255C1033.22 298.172 1038.19 294.494 1042.7 290.292L1049.14 297.159C1047.97 298.172 1047.2 299.562 1046.95 301.088C1046.71 302.613 1047 304.177 1047.79 305.505C1048.58 306.833 1049.81 307.842 1051.27 308.356C1052.73 308.869 1054.32 308.855 1055.77 308.314C1057.21 307.774 1058.43 306.743 1059.19 305.4C1059.95 304.057 1060.22 302.488 1059.95 300.968C1059.67 299.447 1058.88 298.071 1057.69 297.08C1056.5 296.089 1055.01 295.546 1053.46 295.545C1052.12 295.541 1050.82 295.95 1049.72 296.718L1043.23 289.79C1043.78 289.272 1044.33 288.755 1044.86 288.267C1051.54 281.584 1057 273.789 1061 265.231L1068.16 268.535C1068.03 269.063 1067.96 269.605 1067.96 270.149C1067.95 271.795 1068.57 273.383 1069.67 274.601C1070.78 275.82 1072.3 276.579 1073.94 276.731C1075.58 276.883 1077.22 276.417 1078.53 275.423C1079.84 274.429 1080.74 272.98 1081.04 271.361C1081.33 269.742 1081.02 268.07 1080.14 266.674C1079.27 265.278 1077.91 264.258 1076.32 263.816C1074.74 263.374 1073.04 263.541 1071.57 264.285C1070.1 265.029 1068.97 266.295 1068.39 267.834L1061.3 264.561C1065.7 254.908 1068.16 244.483 1068.52 233.881L1076.24 234.125C1076.28 235.417 1076.69 236.671 1077.44 237.728C1078.18 238.785 1079.22 239.6 1080.43 240.07C1081.63 240.54 1082.95 240.644 1084.21 240.37C1085.47 240.096 1086.63 239.456 1087.53 238.529C1088.43 237.602 1089.04 236.43 1089.28 235.16C1089.52 233.889 1089.38 232.576 1088.88 231.385C1088.37 230.193 1087.53 229.177 1086.45 228.462C1085.38 227.747 1084.11 227.365 1082.82 227.365V227.334ZM1066.39 230.851C1066.39 231.582 1066.39 232.374 1066.39 233.044L1043.67 232.313C1043.67 231.826 1043.67 231.339 1043.67 230.79C1043.68 224.285 1042.55 217.829 1040.34 211.713L1061.66 203.841C1064.8 212.499 1066.4 221.641 1066.39 230.851V230.851ZM1042.55 232.267L991.873 230.623C991.857 230.298 991.8 229.975 991.705 229.664L1039.29 212.154C1041.46 218.149 1042.57 224.476 1042.56 230.851C1042.56 231.323 1042.56 231.734 1042.55 232.267V232.267ZM932.353 229.42L983.026 231.065C983.045 231.389 983.096 231.71 983.179 232.024L935.596 249.548C933.438 243.551 932.336 237.225 932.338 230.851C932.338 230.364 932.338 229.892 932.353 229.42V229.42ZM990.914 228.095L1027.9 193.457C1032.74 198.686 1036.53 204.802 1039.04 211.469L991.462 228.979C991.326 228.667 991.158 228.371 990.959 228.095H990.914ZM990.411 227.563C990.127 227.304 989.809 227.084 989.467 226.908L1008.71 179.967C1015.77 182.922 1022.13 187.314 1027.4 192.863L990.411 227.563ZM988.782 226.619C988.513 226.539 988.238 226.483 987.96 226.451L989.604 175.78C995.932 176.024 1002.17 177.358 1008.04 179.724L988.782 226.619ZM987.259 226.421C986.956 226.434 986.655 226.48 986.361 226.558L969.505 178.749C975.282 176.739 981.355 175.71 987.472 175.704H988.904L987.259 226.421ZM985.737 226.801C985.405 226.956 985.093 227.151 984.808 227.38L950.153 190.397C955.571 185.383 961.939 181.506 968.881 178.993L985.737 226.801ZM984.214 227.882C983.991 228.118 983.797 228.378 983.635 228.659L937.606 207.343C940.537 201.146 944.589 195.545 949.559 190.823L984.214 227.882ZM983.331 229.329C983.208 229.652 983.132 229.99 983.102 230.334L932.384 228.689C932.647 221.57 934.302 214.572 937.256 208.089L983.331 229.329ZM983.483 232.709C983.595 232.969 983.738 233.214 983.909 233.44L983.605 233.988L947.062 268.246C942.222 263.015 938.438 256.899 935.916 250.234L983.483 232.709ZM982.493 236.028L959.502 278.325C955.078 275.716 951.039 272.503 947.503 268.778L982.493 236.028ZM984.991 234.506C985.148 234.611 985.31 234.707 985.478 234.795L966.216 281.69C964.367 280.913 962.562 280.034 960.811 279.056L984.991 234.506ZM986.148 235.069C986.422 235.148 986.702 235.204 986.985 235.236L985.341 285.907C978.998 285.682 972.742 284.353 966.856 281.979L986.148 235.069ZM987.488 285.953H986.072L987.716 235.282C988.019 235.267 988.32 235.221 988.614 235.145L1005.47 282.954C999.672 284.961 993.577 285.975 987.442 285.953H987.488ZM989.3 234.886C989.541 234.774 989.775 234.647 990 234.506L1014.16 279.056C1011.6 280.489 1008.92 281.706 1006.16 282.695L989.3 234.886ZM993.365 237.657L1024.84 271.321C1021.95 273.994 1018.78 276.352 1015.4 278.355L993.365 237.657ZM991.995 235.115L991.081 233.44C991.172 233.303 991.264 233.166 991.34 233.029L1037.37 254.268C1034.45 260.467 1030.4 266.069 1025.43 270.788L991.995 235.115ZM991.644 232.359C991.765 232.034 991.847 231.697 991.888 231.354L1042.56 232.998C1042.29 240.123 1040.63 247.126 1037.67 253.614L991.644 232.359ZM965.76 282.695L957.111 303.767C954.469 302.672 951.891 301.426 949.391 300.037L960.248 280.015C962.035 281.009 963.875 281.903 965.76 282.695V282.695ZM966.43 282.984C972.423 285.404 978.791 286.764 985.249 287.004L984.519 309.735C975.343 309.406 966.295 307.479 957.781 304.041L966.43 282.984ZM985.98 287.034H987.503C993.72 287.042 999.896 286.013 1005.77 283.989L1013.39 305.472C1005.06 308.346 996.312 309.807 987.503 309.796H985.31L985.98 287.034ZM1006.47 283.73C1009.3 282.713 1012.03 281.471 1014.65 280.015L1025.51 300.037C1021.83 302.07 1018 303.801 1014.04 305.213L1006.47 283.73ZM1061.44 203.217L1040.12 211.088C1037.56 204.281 1033.69 198.035 1028.75 192.696L1045.36 177.135C1052.38 184.693 1057.84 193.555 1061.44 203.217V203.217ZM1043.26 175.034C1043.78 175.552 1044.3 176.069 1044.78 176.557L1028.19 192.148C1022.82 186.486 1016.33 182.001 1009.14 178.978L1017.79 157.92C1027.32 161.895 1035.98 167.711 1043.26 175.034V175.034ZM1017.12 157.646L1008.45 178.719C1002.46 176.291 996.095 174.926 989.635 174.684L990.381 151.967C999.556 152.285 1008.61 154.207 1017.12 157.646V157.646ZM987.442 151.906H989.65L988.904 174.623H987.381C981.163 174.613 974.988 175.642 969.11 177.668L961.496 156.2C969.844 153.33 978.614 151.878 987.442 151.906V151.906ZM960.842 156.474L968.455 177.942C961.372 180.512 954.875 184.473 949.346 189.59L933.784 172.979C941.586 165.696 950.793 160.085 960.842 156.489V156.474ZM931.577 175.034L933.099 173.512L948.66 190.123C943.589 194.936 939.459 200.652 936.479 206.978L915.802 197.431C919.711 189.101 925.05 181.521 931.577 175.034V175.034ZM915.589 198.071L936.266 207.617C933.25 214.25 931.558 221.408 931.287 228.689L908.554 227.943C908.911 217.62 911.302 207.468 915.589 198.071ZM908.509 230.851C908.509 230.105 908.509 229.329 908.509 228.644L931.226 229.39C931.226 229.877 931.226 230.364 931.226 230.912C931.237 237.426 932.386 243.887 934.622 250.005L913.305 257.862C910.147 249.206 908.524 240.065 908.509 230.851V230.851ZM913.457 258.471L934.774 250.614C937.344 257.42 941.212 263.661 946.163 268.992L929.597 284.552C922.552 277.006 917.067 268.143 913.457 258.471V258.471ZM931.577 286.669L930.054 285.146L946.651 269.585C950.267 273.399 954.397 276.689 958.923 279.36L948.067 299.382C942.037 295.884 936.493 291.61 931.577 286.669V286.669ZM1065.83 374.429H908.996L948.326 301.97C950.898 303.387 953.547 304.663 956.258 305.792L953.487 312.552C952.842 312.346 952.17 312.238 951.493 312.232C949.863 312.227 948.29 312.825 947.076 313.912C945.861 314.998 945.092 316.495 944.917 318.115C944.741 319.735 945.172 321.362 946.125 322.683C947.079 324.004 948.487 324.926 950.08 325.269C951.673 325.613 953.336 325.355 954.75 324.545C956.163 323.735 957.227 322.43 957.735 320.883C958.244 319.335 958.161 317.653 957.503 316.163C956.845 314.673 955.659 313.478 954.172 312.811L956.928 306.066C965.682 309.611 974.989 311.595 984.427 311.928L984.199 318.825C982.468 318.92 980.843 319.687 979.669 320.962C978.495 322.237 977.865 323.919 977.913 325.652C977.96 327.384 978.682 329.029 979.924 330.238C981.166 331.446 982.831 332.122 984.564 332.122C986.297 332.122 987.962 331.446 989.204 330.238C990.446 329.029 991.168 327.384 991.216 325.652C991.263 323.919 990.633 322.237 989.459 320.962C988.285 319.687 986.66 318.92 984.93 318.825L985.158 311.913H987.427C996.494 311.925 1005.5 310.423 1014.07 307.467L1016.43 314.181C1014.97 314.87 1013.81 316.075 1013.17 317.566C1012.54 319.057 1012.48 320.729 1013.01 322.261C1013.53 323.794 1014.6 325.079 1016.01 325.871C1017.42 326.664 1019.08 326.907 1020.66 326.555C1022.24 326.202 1023.64 325.279 1024.58 323.962C1025.52 322.645 1025.94 321.027 1025.77 319.417C1025.59 317.807 1024.83 316.319 1023.62 315.238C1022.42 314.157 1020.85 313.558 1019.23 313.557C1018.51 313.554 1017.8 313.673 1017.12 313.907L1014.76 307.223C1018.82 305.772 1022.76 303.995 1026.54 301.909L1065.83 374.429ZM1026.74 299.321L1015.87 279.299C1019.35 277.249 1022.59 274.829 1025.55 272.082L1041.21 288.694C1036.82 292.77 1031.98 296.335 1026.79 299.321H1026.74ZM1043.22 286.669L1041.69 288.191L1026.13 271.595C1031.2 266.775 1035.33 261.061 1038.31 254.74L1058.99 264.272C1055.09 272.595 1049.77 280.174 1043.26 286.669H1043.22ZM1059.26 263.617L1038.59 254.07C1041.6 247.452 1043.29 240.31 1043.57 233.044L1066.28 233.775C1065.94 244.083 1063.57 254.222 1059.31 263.617H1059.26Z" fill="#949494"/>
<path d="M1183.33 282.71H1098.72V406.677H1183.33V282.71Z" fill="#949494"/>
<path d="M1255.55 330.899H1170.93V405.962H1255.55V330.899Z" fill="#949494"/>
<path d="M890.283 319.876H842.823V382.879H890.283V319.876Z" fill="#949494"/>
<path d="M1200.85 164.818H1141.01V406.677H1200.85V164.818Z" fill="#949494"/>
<path d="M1299.4 406.677H1220.47V265.444H1280.32L1299.4 406.677Z" fill="#949494"/>
<path d="M1333.96 374.429H1264.83V406.662H1333.96V374.429Z" fill="#949494"/>
<path d="M1187.46 114.284H1185.38V180.013H1187.46V114.284Z" fill="#949494"/>
<path d="M1194.41 128.398H1192.34V194.127H1194.41V128.398Z" fill="#949494"/>
<path d="M1181.14 137.472H1179.07V203.202H1181.14V137.472Z" fill="#949494"/>
<path d="M1251.8 254.04H1223.56V276.285H1251.8V254.04Z" fill="#949494"/>
<path d="M1248.73 246.107H1226.66V258.608H1248.73V246.107Z" fill="#949494"/>
<path d="M1268.44 260.557H1263.02V269.54H1268.44V260.557Z" fill="#949494"/>
<path d="M1278.1 252.35H1270.36V269.524H1278.1V252.35Z" fill="#949494"/>
<path d="M914.325 219.371H842.579V450.618H914.325V219.371Z" fill="#545454"/>
<path d="M919.685 220.742H837.219V223.086H919.685V220.742Z" fill="#545454"/>
<path d="M917.447 253.233H839.442V255.563H917.447V253.233Z" fill="#545454"/>
<path d="M917.447 284.689H839.442V287.019H917.447V284.689Z" fill="#545454"/>
<path d="M917.447 316.145H839.442V318.475H917.447V316.145Z" fill="#545454"/>
<path d="M917.447 347.602H839.442V349.931H917.447V347.602Z" fill="#545454"/>
<path d="M917.447 379.058H839.442V381.387H917.447V379.058Z" fill="#545454"/>
<path d="M917.447 410.514H839.442V412.844H917.447V410.514Z" fill="#545454"/>
<path d="M922.41 214.362H834.494V220.757H922.41V214.362Z" fill="#545454"/>
<path opacity="0.29" d="M856.496 230.684H849.035V249.153H856.496V230.684Z" fill="#545454"/>
<path d="M873.168 230.684H865.708V249.153H873.168V230.684Z" fill="#545454"/>
<path d="M889.841 230.684H882.38V249.153H889.841V230.684Z" fill="#545454"/>
<path d="M906.514 230.684H899.053V249.153H906.514V230.684Z" fill="#545454"/>
<path d="M856.496 260.892H849.035V279.36H856.496V260.892Z" fill="#545454"/>
<path opacity="0.29" d="M873.168 260.892H865.708V279.36H873.168V260.892Z" fill="#545454"/>
<path d="M889.841 260.892H882.38V279.36H889.841V260.892Z" fill="#545454"/>
<path d="M906.514 260.892H899.053V279.36H906.514V260.892Z" fill="#545454"/>
<path d="M856.496 292.348H849.035V310.816H856.496V292.348Z" fill="#545454"/>
<path d="M873.168 292.348H865.708V310.816H873.168V292.348Z" fill="#545454"/>
<path d="M889.841 292.348H882.38V310.816H889.841V292.348Z" fill="#545454"/>
<path opacity="0.29" d="M906.514 292.348H899.053V310.816H906.514V292.348Z" fill="#545454"/>
<path d="M856.496 323.804H849.035V342.273H856.496V323.804Z" fill="#545454"/>
<path opacity="0.29" d="M873.168 323.804H865.708V342.273H873.168V323.804Z" fill="#545454"/>
<path opacity="0.29" d="M889.841 323.804H882.38V342.273H889.841V323.804Z" fill="#545454"/>
<path d="M906.514 323.804H899.053V342.273H906.514V323.804Z" fill="#545454"/>
<path opacity="0.29" d="M856.496 355.26H849.035V373.729H856.496V355.26Z" fill="#545454"/>
<path d="M873.168 355.26H865.708V373.729H873.168V355.26Z" fill="#545454"/>
<path d="M889.841 355.26H882.38V373.729H889.841V355.26Z" fill="#545454"/>
<path d="M906.514 355.26H899.053V373.729H906.514V355.26Z" fill="#545454"/>
<path d="M856.496 386.716H849.035V405.185H856.496V386.716Z" fill="#545454"/>
<path d="M873.168 386.716H865.708V405.185H873.168V386.716Z" fill="#545454"/>
<path opacity="0.29" d="M889.841 386.716H882.38V405.185H889.841V386.716Z" fill="#545454"/>
<path d="M906.514 386.716H899.053V405.185H906.514V386.716Z" fill="#545454"/>
<path d="M856.496 418.173H849.035V436.641H856.496V418.173Z" fill="#545454"/>
<path opacity="0.29" d="M873.168 418.173H865.708V436.641H873.168V418.173Z" fill="#545454"/>
<path d="M889.841 418.173H882.38V436.641H889.841V418.173Z" fill="#545454"/>
<path opacity="0.29" d="M906.514 418.173H899.053V436.641H906.514V418.173Z" fill="#545454"/>
<path d="M871.509 205.546H847.101V217.559H871.509V205.546Z" fill="#545454"/>
<path d="M873.168 205.196H845.457V207.252H873.168V205.196Z" fill="#545454"/>
<path d="M739.74 450.618H644.18V230.912L739.74 207.526V450.618Z" fill="#545454"/>
<path d="M648.367 227.045H639.978V450.634H648.367V227.045Z" fill="#545454"/>
<path d="M672.272 220.742H663.867V450.618H672.272V220.742Z" fill="#545454"/>
<path d="M696.147 214.195H687.758V450.618H696.147V214.195Z" fill="#545454"/>
<path d="M720.053 208.865H711.663V450.618H720.053V208.865Z" fill="#545454"/>
<path d="M743.943 203.186H735.553V450.618H743.943V203.186Z" fill="#545454"/>
<path opacity="0.29" d="M661.69 245.803H650.544V262.78H661.69V245.803Z" fill="#545454"/>
<path opacity="0.29" d="M685.595 245.803H674.45V262.78H685.595V245.803Z" fill="#545454"/>
<path d="M709.485 245.803H698.34V262.78H709.485V245.803Z" fill="#545454"/>
<path opacity="0.29" d="M733.376 245.803H722.23V262.78H733.376V245.803Z" fill="#545454"/>
<path d="M661.69 275.371H650.544V292.348H661.69V275.371Z" fill="#545454"/>
<path d="M685.595 275.371H674.45V292.348H685.595V275.371Z" fill="#545454"/>
<path opacity="0.29" d="M709.485 275.371H698.34V292.348H709.485V275.371Z" fill="#545454"/>
<path opacity="0.29" d="M733.376 275.371H722.23V292.348H733.376V275.371Z" fill="#545454"/>
<path opacity="0.29" d="M661.69 304.939H650.544V321.916H661.69V304.939Z" fill="#545454"/>
<path opacity="0.29" d="M685.595 304.939H674.45V321.916H685.595V304.939Z" fill="#545454"/>
<path opacity="0.29" d="M709.485 304.939H698.34V321.916H709.485V304.939Z" fill="#545454"/>
<path d="M733.376 304.939H722.23V321.916H733.376V304.939Z" fill="#545454"/>
<path opacity="0.29" d="M661.69 334.492H650.544V351.469H661.69V334.492Z" fill="#545454"/>
<path d="M685.595 334.492H674.45V351.469H685.595V334.492Z" fill="#545454"/>
<path opacity="0.29" d="M709.485 334.492H698.34V351.469H709.485V334.492Z" fill="#545454"/>
<path opacity="0.29" d="M733.376 334.492H722.23V351.469H733.376V334.492Z" fill="#545454"/>
<path opacity="0.29" d="M661.69 364.061H650.544V381.037H661.69V364.061Z" fill="#545454"/>
<path opacity="0.29" d="M685.595 364.061H674.45V381.037H685.595V364.061Z" fill="#545454"/>
<path d="M709.485 364.061H698.34V381.037H709.485V364.061Z" fill="#545454"/>
<path opacity="0.29" d="M733.376 364.061H722.23V381.037H733.376V364.061Z" fill="#545454"/>
<path d="M661.69 393.629H650.544V410.605H661.69V393.629Z" fill="#545454"/>
<path d="M685.595 393.629H674.45V410.605H685.595V393.629Z" fill="#545454"/>
<path opacity="0.29" d="M709.485 393.629H698.34V410.605H709.485V393.629Z" fill="#545454"/>
<path opacity="0.29" d="M733.376 393.629H722.23V410.605H733.376V393.629Z" fill="#545454"/>
<path opacity="0.29" d="M661.69 423.197H650.544V440.174H661.69V423.197Z" fill="#545454"/>
<path d="M685.595 423.197H674.45V440.174H685.595V423.197Z" fill="#545454"/>
<path opacity="0.29" d="M709.485 423.197H698.34V440.174H709.485V423.197Z" fill="#545454"/>
<path d="M733.376 423.197H722.23V440.174H733.376V423.197Z" fill="#545454"/>
<path d="M371.553 241.433V243.717H369.269V250.218H409.268V450.618H343.643V260.663V250.218V243.717H341.268V241.433H371.553Z" fill="#545454"/>
<path d="M539.56 332.467H483.344V450.634H539.56V332.467Z" fill="#545454"/>
<path d="M284.047 305.381H238.353V450.634H284.047V305.381Z" fill="#545454"/>
<path d="M324.777 335.634H274.987V450.618H324.777V335.634Z" fill="#545454"/>
<path d="M275.002 299.549H254.797V316.937H275.002V299.549Z" fill="#545454"/>
<path d="M331.492 333.746H278.413V337.994H331.492V333.746Z" fill="#545454"/>
<path d="M375.253 384.95H319.433V450.618H375.253V384.95Z" fill="#545454"/>
<path d="M184.421 331.539H139.016V450.618H184.421V331.539Z" fill="#545454"/>
<path d="M159.343 390.888H99.6106V450.618H159.343V390.888Z" fill="#545454"/>
<path d="M71.1983 381.113H33.8329V450.618H71.1983V381.113Z" fill="#545454"/>
<path d="M152.248 428.846H63.9353V450.618H152.248V428.846Z" fill="#545454"/>
<path d="M45.2678 421.812H0V450.618H45.2678V421.812Z" fill="#545454"/>
<path d="M254.782 406.677H184.421V450.618H254.782V406.677Z" fill="#545454"/>
<path d="M500.458 431.693H390.844V450.618H500.458V431.693Z" fill="#545454"/>
<path d="M694.792 431.693H585.178V450.618H694.792V431.693Z" fill="#545454"/>
<path d="M496.18 376.104H454.521L436.904 441.148H496.18V376.104Z" fill="#545454"/>
<path d="M516.599 281.461H515.441V353.616H516.599V281.461Z" fill="#545454"/>
<path d="M522.796 305.883H521.243V348.47H522.796V305.883Z" fill="#545454"/>
<path d="M534.018 313.42H512.944V334.492H534.018V313.42Z" fill="#545454"/>
<path d="M537.291 311.791H509.381V313.679H537.291V311.791Z" fill="#545454"/>
<path d="M597.435 389.67H529.328V450.618H597.435V389.67Z" fill="#545454"/>
<path d="M628.162 322.586H584.401V440.174H628.162V322.586Z" fill="#545454"/>
<path d="M825.206 344.694H755.302V450.618H825.206V344.694Z" fill="#545454"/>
<path d="M813.086 411.595H733.376V450.634H813.086V411.595Z" fill="#545454"/>
<path d="M873.169 436.657H821.338V450.634H873.169V436.657Z" fill="#545454"/>
<path d="M985.432 411.595H901.17V450.634H985.432V411.595Z" fill="#545454"/>
<path d="M934.729 450.618H1039.59V309.4H934.729V450.618Z" fill="#545454"/>
<path d="M932.033 309.401H1045.71V303.98H932.033V309.401Z" fill="#545454"/>
<path d="M988.873 317.896H1034.95V289.257H988.873V317.896Z" fill="#545454"/>
<path d="M966.079 306.69H973.814V289.272H966.079V306.69Z" fill="#545454"/>
<path d="M949.818 306.69H958.329V289.272H949.818V306.69Z" fill="#545454"/>
<path d="M1111.69 450.618H1194.69V244.372H1111.69V450.618Z" fill="#545454"/>
<path d="M1109.31 246.656H1197.03V240.824H1109.31V246.656Z" fill="#545454"/>
<path d="M1114.46 261.074H1191.89V233.364H1114.46V261.074Z" fill="#545454"/>
<path d="M1155.3 252.289H1185.96V222.02H1155.3V252.289Z" fill="#545454"/>
<path d="M1168.22 230.562H1185.96V214.621H1173.23L1168.22 230.562Z" fill="#545454"/>
<path d="M1177.09 236.881H1178.81V201.39H1177.09V236.881Z" fill="#545454"/>
<path d="M1176.42 199.547C1176.48 199.827 1176.61 200.084 1176.81 200.289C1177.01 200.494 1177.27 200.639 1177.54 200.706C1177.82 200.774 1178.11 200.762 1178.38 200.672C1178.66 200.582 1178.9 200.418 1179.08 200.197C1179.26 199.977 1179.38 199.71 1179.41 199.426C1179.45 199.142 1179.41 198.854 1179.29 198.594C1179.17 198.334 1178.98 198.113 1178.74 197.955C1178.5 197.798 1178.22 197.711 1177.94 197.705C1177.5 197.755 1177.09 197.975 1176.81 198.319C1176.52 198.662 1176.38 199.103 1176.42 199.547Z" fill="#545454"/>
<path d="M1220.47 365.477H1183.31V450.618H1220.47V365.477Z" fill="#545454"/>
<path d="M1119.87 323.956H1077.51V450.618H1119.87V323.956Z" fill="#545454"/>
<path d="M1098.72 450.618H1039.03V382.88L1089.4 405.185L1098.72 450.618Z" fill="#545454"/>
<path d="M1299.4 413.833H1208.27V450.618H1299.4V413.833Z" fill="#545454"/>
<path d="M1318.68 303.752H1265.73V450.618H1318.68V303.752Z" fill="#545454"/>
<path d="M1394 423.197H1306.3V450.618H1394V423.197Z" fill="#545454"/>
<path d="M1321.1 301.057H1263.02V305.868H1321.1V301.057Z" fill="#545454"/>
<path d="M1311.58 280.335H1310.42V309.933H1311.58V280.335Z" fill="#545454"/>
<path d="M1303.84 284.08H1302.69V307.817H1303.84V284.08Z" fill="#545454"/>
<path d="M1338.27 359.082H1314.67V426.364H1348.34L1338.27 359.082Z" fill="#545454"/>
<g opacity="0.52">
<path opacity="0.52" d="M246.529 312.735H243.073V316.191H246.529V312.735Z" fill="white"/>
<path opacity="0.52" d="M253.473 312.735H250.016V316.191H253.473V312.735Z" fill="white"/>
<path opacity="0.52" d="M246.529 320.85H243.073V324.306H246.529V320.85Z" fill="white"/>
<path opacity="0.52" d="M253.473 320.85H250.016V324.306H253.473V320.85Z" fill="white"/>
<path opacity="0.52" d="M246.529 328.707H243.073V332.163H246.529V328.707Z" fill="white"/>
<path opacity="0.52" d="M261.192 312.735H257.736V316.191H261.192V312.735Z" fill="white"/>
</g>
<path opacity="0.5" d="M498.54 208.865H496.18V221.914H498.54V208.865Z" fill="white"/>
<path opacity="0.5" d="M506.671 208.865H504.311V221.914H506.671V208.865Z" fill="white"/>
<path opacity="0.5" d="M514.802 208.865H512.442V221.914H514.802V208.865Z" fill="white"/>
<path opacity="0.5" d="M522.933 208.865H520.573V221.914H522.933V208.865Z" fill="white"/>
<path opacity="0.5" d="M531.064 208.865H528.704V221.914H531.064V208.865Z" fill="white"/>
<path opacity="0.5" d="M539.194 208.865H536.834V221.914H539.194V208.865Z" fill="white"/>
<path opacity="0.5" d="M547.31 208.865H544.95V221.914H547.31V208.865Z" fill="white"/>
<path opacity="0.5" d="M555.441 208.865H553.081V221.914H555.441V208.865Z" fill="white"/>
<path opacity="0.5" d="M563.572 208.865H561.212V221.914H563.572V208.865Z" fill="white"/>
<path opacity="0.5" d="M571.703 208.865H569.343V221.914H571.703V208.865Z" fill="white"/>
<path opacity="0.5" d="M579.833 208.865H577.473V221.914H579.833V208.865Z" fill="white"/>
<path opacity="0.5" d="M498.54 227.045H496.18V240.093H498.54V227.045Z" fill="white"/>
<path opacity="0.5" d="M506.671 227.045H504.311V240.093H506.671V227.045Z" fill="white"/>
<path opacity="0.5" d="M514.802 227.045H512.442V240.093H514.802V227.045Z" fill="white"/>
<path opacity="0.5" d="M522.933 227.045H520.573V240.093H522.933V227.045Z" fill="white"/>
<path opacity="0.5" d="M531.064 227.045H528.704V240.093H531.064V227.045Z" fill="white"/>
<path opacity="0.5" d="M539.194 227.045H536.834V240.093H539.194V227.045Z" fill="white"/>
<path opacity="0.5" d="M547.31 227.045H544.95V240.093H547.31V227.045Z" fill="white"/>
<path opacity="0.5" d="M555.441 227.045H553.081V240.093H555.441V227.045Z" fill="white"/>
<path opacity="0.5" d="M563.572 227.045H561.212V240.093H563.572V227.045Z" fill="white"/>
<path opacity="0.5" d="M571.703 227.045H569.343V240.093H571.703V227.045Z" fill="white"/>
<path opacity="0.5" d="M579.833 227.045H577.473V240.093H579.833V227.045Z" fill="white"/>
<path opacity="0.5" d="M498.54 245.209H496.18V258.257H498.54V245.209Z" fill="white"/>
<path opacity="0.5" d="M506.671 245.209H504.311V258.257H506.671V245.209Z" fill="white"/>
<path opacity="0.5" d="M514.802 245.209H512.442V258.257H514.802V245.209Z" fill="white"/>
<path opacity="0.5" d="M522.933 245.209H520.573V258.257H522.933V245.209Z" fill="white"/>
<path opacity="0.5" d="M531.064 245.209H528.704V258.257H531.064V245.209Z" fill="white"/>
<path opacity="0.5" d="M539.194 245.209H536.834V258.257H539.194V245.209Z" fill="white"/>
<path opacity="0.5" d="M547.31 245.209H544.95V258.257H547.31V245.209Z" fill="white"/>
<path opacity="0.5" d="M555.441 245.209H553.081V258.257H555.441V245.209Z" fill="white"/>
<path opacity="0.5" d="M563.572 245.209H561.212V258.257H563.572V245.209Z" fill="white"/>
<path opacity="0.5" d="M571.703 245.209H569.343V258.257H571.703V245.209Z" fill="white"/>
<path opacity="0.5" d="M579.833 245.209H577.473V258.257H579.833V245.209Z" fill="white"/>
<path opacity="0.5" d="M522.933 263.389H520.573V276.437H522.933V263.389Z" fill="white"/>
<path opacity="0.5" d="M531.064 263.389H528.704V276.437H531.064V263.389Z" fill="white"/>
<path opacity="0.5" d="M539.194 263.389H536.834V276.437H539.194V263.389Z" fill="white"/>
<path opacity="0.5" d="M547.31 263.389H544.95V276.437H547.31V263.389Z" fill="white"/>
<path opacity="0.5" d="M555.441 263.389H553.081V276.437H555.441V263.389Z" fill="white"/>
<path opacity="0.5" d="M563.572 263.389H561.212V276.437H563.572V263.389Z" fill="white"/>
<path opacity="0.5" d="M571.703 263.389H569.343V276.437H571.703V263.389Z" fill="white"/>
<path opacity="0.5" d="M579.833 263.389H577.473V276.437H579.833V263.389Z" fill="white"/>
<path opacity="0.5" d="M531.064 282.573H528.704V295.621H531.064V282.573Z" fill="white"/>
<path opacity="0.5" d="M539.194 282.573H536.834V295.621H539.194V282.573Z" fill="white"/>
<path opacity="0.5" d="M547.31 282.573H544.95V295.621H547.31V282.573Z" fill="white"/>
<path opacity="0.5" d="M555.441 282.573H553.081V295.621H555.441V282.573Z" fill="white"/>
<path opacity="0.5" d="M563.572 282.573H561.212V295.621H563.572V282.573Z" fill="white"/>
<path opacity="0.5" d="M571.703 282.573H569.343V295.621H571.703V282.573Z" fill="white"/>
<path opacity="0.5" d="M579.833 282.573H577.473V295.621H579.833V282.573Z" fill="white"/>
<path opacity="0.33" d="M658.904 241.266H653.331V255.395H658.904V241.266Z" fill="white"/>
<path opacity="0.33" d="M658.904 268.306H653.331V282.436H658.904V268.306Z" fill="white"/>
<path opacity="0.33" d="M658.904 295.332H653.331V309.461H658.904V295.332Z" fill="white"/>
<path opacity="0.33" d="M658.904 322.373H653.331V336.502H658.904V322.373Z" fill="white"/>
<path opacity="0.33" d="M658.904 347.86H653.331V361.99H658.904V347.86Z" fill="white"/>
<path opacity="0.33" d="M658.904 374.886H653.331V389.015H658.904V374.886Z" fill="white"/>
<path opacity="0.33" d="M682.809 241.266H677.236V255.395H682.809V241.266Z" fill="white"/>
<path opacity="0.33" d="M682.809 268.306H677.236V282.436H682.809V268.306Z" fill="white"/>
<path opacity="0.33" d="M682.809 295.332H677.236V309.461H682.809V295.332Z" fill="white"/>
<path opacity="0.33" d="M682.809 322.373H677.236V336.502H682.809V322.373Z" fill="white"/>
<path opacity="0.33" d="M682.809 347.86H677.236V361.99H682.809V347.86Z" fill="white"/>
<path opacity="0.33" d="M682.809 374.886H677.236V389.015H682.809V374.886Z" fill="white"/>
<path opacity="0.33" d="M706.699 241.266H701.126V255.395H706.699V241.266Z" fill="white"/>
<path opacity="0.33" d="M706.699 268.306H701.126V282.436H706.699V268.306Z" fill="white"/>
<path opacity="0.33" d="M706.699 295.332H701.126V309.461H706.699V295.332Z" fill="white"/>
<path opacity="0.33" d="M706.699 322.373H701.126V336.502H706.699V322.373Z" fill="white"/>
<path opacity="0.33" d="M706.699 347.86H701.126V361.99H706.699V347.86Z" fill="white"/>
<path opacity="0.33" d="M706.699 374.886H701.126V389.015H706.699V374.886Z" fill="white"/>
<path opacity="0.33" d="M730.589 241.266H725.016V255.395H730.589V241.266Z" fill="white"/>
<path opacity="0.33" d="M730.589 268.306H725.016V282.436H730.589V268.306Z" fill="white"/>
<path opacity="0.33" d="M730.589 295.332H725.016V309.461H730.589V295.332Z" fill="white"/>
<path opacity="0.33" d="M730.589 322.373H725.016V336.502H730.589V322.373Z" fill="white"/>
<path opacity="0.33" d="M730.589 347.86H725.016V361.99H730.589V347.86Z" fill="white"/>
<path opacity="0.33" d="M730.589 374.886H725.016V389.015H730.589V374.886Z" fill="white"/>
<path opacity="0.5" d="M568.216 44.1696H563.572V56.5329H568.216V44.1696Z" fill="white"/>
<path opacity="0.5" d="M579.666 44.1696H575.022V56.5329H579.666V44.1696Z" fill="white"/>
<path opacity="0.5" d="M591.101 44.1696H586.457V56.5329H591.101V44.1696Z" fill="white"/>
<path opacity="0.5" d="M602.536 44.1696H597.892V56.5329H602.536V44.1696Z" fill="white"/>
<path opacity="0.5" d="M568.216 64.77H563.572V77.1332H568.216V64.77Z" fill="white"/>
<path opacity="0.5" d="M579.666 64.77H575.022V77.1332H579.666V64.77Z" fill="white"/>
<path opacity="0.5" d="M591.101 64.77H586.457V77.1332H591.101V64.77Z" fill="white"/>
<path opacity="0.5" d="M602.536 64.77H597.892V77.1332H602.536V64.77Z" fill="white"/>
<path opacity="0.5" d="M568.216 85.3702H563.572V97.7335H568.216V85.3702Z" fill="white"/>
<path opacity="0.5" d="M579.666 85.3702H575.022V97.7335H579.666V85.3702Z" fill="white"/>
<path opacity="0.5" d="M615.524 44.1696H610.88V56.5329H615.524V44.1696Z" fill="white"/>
<path opacity="0.4" d="M257.751 169.477H254.797V180.82H257.751V169.477Z" fill="white"/>
<path opacity="0.4" d="M268.151 169.477H265.197V180.82H268.151V169.477Z" fill="white"/>
<path opacity="0.4" d="M280.317 169.477H277.363V180.82H280.317V169.477Z" fill="white"/>
<path opacity="0.4" d="M290.731 169.477H287.777V180.82H290.731V169.477Z" fill="white"/>
<path opacity="0.4" d="M234.637 169.477H231.684V180.82H234.637V169.477Z" fill="white"/>
<path opacity="0.4" d="M245.037 169.477H242.083V180.82H245.037V169.477Z" fill="white"/>
<path opacity="0.4" d="M257.751 189.164H254.797V200.507H257.751V189.164Z" fill="white"/>
<path opacity="0.4" d="M268.151 189.164H265.197V200.507H268.151V189.164Z" fill="white"/>
<path opacity="0.4" d="M280.317 189.164H277.363V200.507H280.317V189.164Z" fill="white"/>
<path opacity="0.4" d="M290.731 189.164H287.777V200.507H290.731V189.164Z" fill="white"/>
<path opacity="0.4" d="M234.637 189.164H231.684V200.507H234.637V189.164Z" fill="white"/>
<path opacity="0.4" d="M245.037 189.164H242.083V200.507H245.037V189.164Z" fill="white"/>
<path opacity="0.4" d="M257.751 208.85H254.797V220.193H257.751V208.85Z" fill="white"/>
<path opacity="0.4" d="M268.151 208.85H265.197V220.193H268.151V208.85Z" fill="white"/>
<path opacity="0.4" d="M280.317 208.85H277.363V220.193H280.317V208.85Z" fill="white"/>
<path opacity="0.4" d="M290.731 208.85H287.777V220.193H290.731V208.85Z" fill="white"/>
<path opacity="0.4" d="M234.637 208.85H231.684V220.193H234.637V208.85Z" fill="white"/>
<path opacity="0.4" d="M245.037 208.85H242.083V220.193H245.037V208.85Z" fill="white"/>
<path opacity="0.5" d="M809.644 256.37H805.076V273.955H809.644V256.37Z" fill="white"/>
<path opacity="0.5" d="M823.622 256.37H819.054V273.955H823.622V256.37Z" fill="white"/>
<path opacity="0.5" d="M836.778 256.37H832.21V273.955H836.778V256.37Z" fill="white"/>
<path opacity="0.33" d="M1123.35 260.024H1119.88V269.905H1123.35V260.024Z" fill="white"/>
<path opacity="0.33" d="M1134.22 260.024H1130.75V269.905H1134.22V260.024Z" fill="white"/>
<path opacity="0.33" d="M1123.35 260.024H1119.88V269.905H1123.35V260.024Z" fill="white"/>
<path opacity="0.33" d="M1134.22 260.024H1130.75V269.905H1134.22V260.024Z" fill="white"/>
<path opacity="0.33" d="M1144.49 260.024H1141.01V269.905H1144.49V260.024Z" fill="white"/>
<path opacity="0.33" d="M1155.36 260.024H1151.89V269.905H1155.36V260.024Z" fill="white"/>
<path opacity="0.33" d="M1123.35 277.762H1119.88V287.643H1123.35V277.762Z" fill="white"/>
<path opacity="0.33" d="M1134.22 277.762H1130.75V287.643H1134.22V277.762Z" fill="white"/>
<path opacity="0.33" d="M1123.35 277.762H1119.88V287.643H1123.35V277.762Z" fill="white"/>
<path opacity="0.33" d="M1134.22 277.762H1130.75V287.643H1134.22V277.762Z" fill="white"/>
<path opacity="0.33" d="M1144.49 277.762H1141.01V287.643H1144.49V277.762Z" fill="white"/>
<path opacity="0.33" d="M1155.36 277.762H1151.89V287.643H1155.36V277.762Z" fill="white"/>
<path opacity="0.33" d="M1123.35 296.641H1119.88V306.523H1123.35V296.641Z" fill="white"/>
<path opacity="0.33" d="M1134.22 296.641H1130.75V306.523H1134.22V296.641Z" fill="white"/>
<path opacity="0.33" d="M1123.35 296.641H1119.88V306.523H1123.35V296.641Z" fill="white"/>
<path opacity="0.33" d="M1134.22 296.641H1130.75V306.523H1134.22V296.641Z" fill="white"/>
<path opacity="0.33" d="M1144.49 296.641H1141.01V306.523H1144.49V296.641Z" fill="white"/>
<path opacity="0.33" d="M1155.36 296.641H1151.89V306.523H1155.36V296.641Z" fill="white"/>
<path opacity="0.33" d="M1167.23 260.024H1163.76V269.905H1167.23V260.024Z" fill="white"/>
<path opacity="0.33" d="M1167.23 277.762H1163.76V287.643H1167.23V277.762Z" fill="white"/>
<path opacity="0.33" d="M1178.11 260.024H1174.63V269.905H1178.11V260.024Z" fill="white"/>
<path opacity="0.33" d="M852.765 230.684H849.035V246.107H852.765V230.684Z" fill="white"/>
<path opacity="0.33" d="M871.311 230.684H867.58V246.107H871.311V230.684Z" fill="white"/>
<path opacity="0.33" d="M889.841 230.684H886.111V246.107H889.841V230.684Z" fill="white"/>
<path opacity="0.33" d="M908.372 230.684H904.641V246.107H908.372V230.684Z" fill="white"/>
<path opacity="0.33" d="M852.765 262.414H849.035V277.838H852.765V262.414Z" fill="white"/>
<path opacity="0.33" d="M871.311 262.414H867.58V277.838H871.311V262.414Z" fill="white"/>
<path opacity="0.33" d="M889.841 262.414H886.111V277.838H889.841V262.414Z" fill="white"/>
<path opacity="0.33" d="M908.372 262.414H904.641V277.838H908.372V262.414Z" fill="white"/>
<path opacity="0.33" d="M852.765 294.936H849.035V310.36H852.765V294.936Z" fill="white"/>
<path opacity="0.33" d="M871.311 294.936H867.58V310.36H871.311V294.936Z" fill="white"/>
<path opacity="0.33" d="M889.841 294.936H886.111V310.36H889.841V294.936Z" fill="white"/>
<path opacity="0.33" d="M908.372 294.936H904.641V310.36H908.372V294.936Z" fill="white"/>
<path opacity="0.33" d="M852.765 327.458H849.035V342.882H852.765V327.458Z" fill="white"/>
<path opacity="0.33" d="M871.311 327.458H867.58V342.882H871.311V327.458Z" fill="white"/>
<path opacity="0.33" d="M889.841 327.458H886.111V342.882H889.841V327.458Z" fill="white"/>
<path opacity="0.33" d="M908.372 327.458H904.641V342.882H908.372V327.458Z" fill="white"/>
<path opacity="0.33" d="M852.765 359.901H849.035V375.325H852.765V359.901Z" fill="white"/>
<path opacity="0.33" d="M871.311 356.996H867.58V372.419H871.311V356.996Z" fill="white"/>
<path opacity="0.33" d="M889.841 356.996H886.111V372.419H889.841V356.996Z" fill="white"/>
<path opacity="0.33" d="M852.765 389.944H849.035V405.368H852.765V389.944Z" fill="white"/>
<path opacity="0.33" d="M871.311 389.944H867.58V405.368H871.311V389.944Z" fill="white"/>
<path opacity="0.33" d="M889.841 389.944H886.111V405.368H889.841V389.944Z" fill="white"/>
<path opacity="0.33" d="M908.372 356.996H904.641V372.419H908.372V356.996Z" fill="white"/>
<path opacity="0.33" d="M1274.23 312.187H1270.42V321.033H1274.23V312.187Z" fill="white"/>
<path opacity="0.33" d="M1274.23 326.484H1270.42V335.33H1274.23V326.484Z" fill="white"/>
<path opacity="0.33" d="M1284.01 312.187H1280.2V321.033H1284.01V312.187Z" fill="white"/>
<path d="M872 5C876.562 7.01713 878.407 8.54633 879.5 12.5C881.506 8.95635 882.024 6.64004 887 5.07463" stroke="black" stroke-opacity="0.25" stroke-width="6" stroke-linejoin="round"/>
<path d="M643 24C650.604 27.3619 653.678 29.9105 655.5 36.5C658.843 30.5939 659.707 26.7334 668 24.1244" stroke="black" stroke-opacity="0.25" stroke-width="6" stroke-linejoin="round"/>
</svg>
